<svg width="20" height="20" viewBox="0 0 20 20" fill="none" xmlns="http://www.w3.org/2000/svg">
<path d="M19.2446 8.26138L11.0868 8.26099C10.7266 8.26099 10.4346 8.55294 10.4346 8.91317V11.5192C10.4346 11.8794 10.7266 12.1714 11.0868 12.1714H15.6807C15.1777 13.4769 14.2388 14.5702 13.0409 15.2649L14.9997 18.6559C18.142 16.8386 19.9997 13.6499 19.9997 10.0805C19.9997 9.57227 19.9623 9.20895 19.8873 8.79985C19.8304 8.48903 19.5605 8.26138 19.2446 8.26138Z" fill="#167EE6"/>
<path d="M10.0003 16.0871C7.75207 16.0871 5.78942 14.8587 4.73533 13.041L1.34448 14.9955C3.07006 17.9862 6.30262 20.0001 10.0003 20.0001C11.8142 20.0001 13.5258 19.5117 15.0002 18.6606V18.6559L13.0414 15.2649C12.1454 15.7846 11.1085 16.0871 10.0003 16.0871Z" fill="#12B347"/>
<path d="M15 18.6606V18.656L13.0411 15.265C12.1451 15.7846 11.1083 16.0871 10 16.0871V20.0001C11.8139 20.0001 13.5256 19.5117 15 18.6606Z" fill="#0F993E"/>
<path d="M3.91303 10.0001C3.91303 8.89193 4.21545 7.85518 4.73502 6.95921L1.34417 5.00476C0.488357 6.47456 0 8.1815 0 10.0001C0 11.8187 0.488357 13.5256 1.34417 14.9954L4.73502 13.041C4.21545 12.145 3.91303 11.1082 3.91303 10.0001Z" fill="#FFD500"/>
<path d="M10.0003 3.91315C11.4663 3.91315 12.8129 4.43409 13.8648 5.30061C14.1243 5.51435 14.5014 5.49893 14.7391 5.26123L16.5856 3.41476C16.8553 3.14507 16.8361 2.70363 16.548 2.4537C14.7857 0.924845 12.4927 0.00012207 10.0003 0.00012207C6.30262 0.00012207 3.07006 2.01406 1.34448 5.00475L4.73533 6.95919C5.78942 5.14151 7.75207 3.91315 10.0003 3.91315Z" fill="#FF4B26"/>
<path d="M13.8645 5.30061C14.124 5.51436 14.5012 5.49893 14.7388 5.26123L16.5853 3.41476C16.855 3.14507 16.8358 2.70363 16.5477 2.45371C14.7854 0.924806 12.4924 0.00012207 10 0.00012207V3.91315C11.466 3.91315 12.8127 4.43409 13.8645 5.30061Z" fill="#D93F21"/>
</svg>
