<svg width="50" height="50" viewBox="0 0 50 50" fill="none" xmlns="http://www.w3.org/2000/svg">
<rect width="50" height="50" fill="url(#paint0_linear_5885_2444)" fill-opacity="0.9"/>
<rect width="41.3043" height="41.3043" transform="translate(4.34766 4.34766)" fill="#0B56DB"/>
<path fill-rule="evenodd" clip-rule="evenodd" d="M34.792 19.4005C34.7787 19.5932 34.6916 19.7734 34.5489 19.9035C34.4062 20.0337 34.2189 20.1039 34.0258 20.0995C33.8327 20.0952 33.6487 20.0165 33.512 19.88C33.3754 19.7435 33.2966 19.5596 33.292 19.3665L33.333 17.5605L31.528 17.5195C31.3353 17.5062 31.1552 17.4192 31.025 17.2765C30.8948 17.1338 30.8246 16.9464 30.829 16.7533C30.8334 16.5602 30.912 16.3762 31.0485 16.2396C31.185 16.1029 31.3689 16.0241 31.562 16.0195L34.118 16.0785C34.2164 16.0806 34.3134 16.1021 34.4035 16.1417C34.4936 16.1814 34.575 16.2384 34.643 16.3096C34.711 16.3807 34.7643 16.4646 34.7998 16.5564C34.8353 16.6482 34.8524 16.7461 34.85 16.8445L34.792 19.4005ZM18.827 22.3455V34.4865C18.827 35.1845 18.262 35.7495 17.564 35.7495H15.513C15.3471 35.7497 15.1828 35.7171 15.0295 35.6537C14.8762 35.5902 14.7369 35.4972 14.6196 35.3799C14.5023 35.2626 14.4093 35.1233 14.3459 34.97C14.2824 34.8167 14.2499 34.6524 14.25 34.4865V22.3455C14.25 21.6485 14.815 21.0825 15.513 21.0825H17.564C18.262 21.0825 18.827 21.6485 18.827 22.3455ZM15.75 22.5825V34.2495H17.327V22.5825H15.75ZM30.109 28.4995V34.4865C30.1091 34.6524 30.0766 34.8167 30.0131 34.97C29.9497 35.1233 29.8567 35.2626 29.7394 35.3799C29.6221 35.4972 29.4828 35.5902 29.3295 35.6537C29.1762 35.7171 29.0119 35.7497 28.846 35.7495H26.795C26.6291 35.7497 26.4648 35.7171 26.3115 35.6537C26.1582 35.5902 26.0189 35.4972 25.9016 35.3799C25.7843 35.2626 25.6913 35.1233 25.6279 34.97C25.5644 34.8167 25.5319 34.6524 25.532 34.4865V28.4995C25.5319 28.3336 25.5644 28.1693 25.6279 28.016C25.6913 27.8628 25.7843 27.7235 25.9016 27.6062C26.0189 27.4889 26.1582 27.3958 26.3115 27.3324C26.4648 27.269 26.6291 27.2364 26.795 27.2365H28.846C29.0119 27.2364 29.1762 27.269 29.3295 27.3324C29.4828 27.3958 29.6221 27.4889 29.7394 27.6062C29.8567 27.7235 29.9497 27.8628 30.0131 28.016C30.0766 28.1693 30.1091 28.3336 30.109 28.4995ZM27.032 28.7365V34.2495H28.609V28.7365H27.032ZM24.468 25.4225V34.4865C24.468 35.1845 23.903 35.7495 23.205 35.7495H21.154C20.9881 35.7497 20.8238 35.7171 20.6705 35.6537C20.5172 35.5902 20.3779 35.4972 20.2606 35.3799C20.1433 35.2626 20.0503 35.1233 19.9869 34.97C19.9234 34.8167 19.8909 34.6524 19.891 34.4865V25.4225C19.8909 25.2566 19.9234 25.0923 19.9869 24.939C20.0503 24.7858 20.1433 24.6465 20.2606 24.5292C20.3779 24.4119 20.5172 24.3188 20.6705 24.2554C20.8238 24.192 20.9881 24.1594 21.154 24.1595H23.205C23.903 24.1595 24.468 24.7255 24.468 25.4225ZM21.391 25.6595V34.2495H22.968V25.6595H21.391ZM35.75 25.4225V34.4865C35.75 35.1845 35.185 35.7495 34.487 35.7495H32.436C32.2701 35.7497 32.1058 35.7171 31.9525 35.6537C31.7992 35.5902 31.6599 35.4972 31.5426 35.3799C31.4253 35.2626 31.3323 35.1233 31.2689 34.97C31.2054 34.8167 31.1729 34.6524 31.173 34.4865V25.4225C31.1729 25.2566 31.2054 25.0923 31.2689 24.939C31.3323 24.7858 31.4253 24.6465 31.5426 24.5292C31.6599 24.4119 31.7992 24.3188 31.9525 24.2554C32.1058 24.192 32.2701 24.1594 32.436 24.1595H34.487C35.185 24.1595 35.75 24.7255 35.75 25.4225ZM32.673 25.6595V34.2495H34.25V25.6595H32.673Z" fill="white"/>
<path fill-rule="evenodd" clip-rule="evenodd" d="M15.4504 15.6C15.2913 15.4807 15.1861 15.303 15.1579 15.1061C15.1298 14.9092 15.181 14.7091 15.3004 14.55C15.4197 14.3909 15.5974 14.2857 15.7943 14.2575C15.9912 14.2294 16.1913 14.2807 16.3504 14.4L22.3034 18.865H25.1304C25.2441 18.865 25.3562 18.8908 25.4584 18.9406C25.5607 18.9903 25.6502 19.0626 25.7204 19.152L28.0074 22.063L33.3074 16.532C33.3755 16.4609 33.457 16.4039 33.5472 16.3643C33.6374 16.3247 33.7345 16.3032 33.833 16.3011C33.9315 16.299 34.0294 16.3164 34.1212 16.3521C34.2129 16.3879 34.2968 16.4413 34.3679 16.5095C34.439 16.5777 34.496 16.6592 34.5356 16.7493C34.5752 16.8395 34.5967 16.9366 34.5988 17.0351C34.6009 17.1336 34.5835 17.2315 34.5478 17.3233C34.512 17.4151 34.4585 17.4989 34.3904 17.57L28.4924 23.724C28.4183 23.8019 28.3283 23.8629 28.2285 23.9029C28.1287 23.9428 28.0214 23.9607 27.914 23.9554C27.8067 23.9501 27.7017 23.9217 27.6063 23.8721C27.511 23.8225 27.4274 23.7529 27.3614 23.668L24.7664 20.365H22.0534C21.8911 20.3652 21.7331 20.3126 21.6034 20.215L15.4504 15.6Z" fill="white"/>
<defs>
<linearGradient id="paint0_linear_5885_2444" x1="25" y1="0" x2="25" y2="50" gradientUnits="userSpaceOnUse">
<stop stop-color="#0B56DB" stop-opacity="0.3"/>
<stop offset="1" stop-color="#0B56DB" stop-opacity="0"/>
</linearGradient>
</defs>
</svg>
