<svg width="20" height="20" viewBox="0 0 20 20" fill="none" xmlns="http://www.w3.org/2000/svg">
<path fill-rule="evenodd" clip-rule="evenodd" d="M9.99994 4.99999C8.04295 4.99999 6.41596 6.19698 5.83297 7.80697C5.77048 7.97988 5.66154 8.13222 5.51812 8.24725C5.37469 8.36227 5.20232 8.43553 5.01997 8.45897C3.27698 8.68297 1.99999 10.09 1.99999 11.714C1.99999 13.4839 3.51998 14.9999 5.49997 14.9999C5.76518 14.9999 6.01953 15.1053 6.20707 15.2928C6.39461 15.4804 6.49996 15.7347 6.49996 15.9999C6.49996 16.2651 6.39461 16.5195 6.20707 16.707C6.01953 16.8946 5.76518 16.9999 5.49997 16.9999C2.50899 16.9999 0 14.6789 0 11.714C0 9.19996 1.80999 7.14398 4.18098 6.58198C5.19997 4.44999 7.43796 3 9.99994 3C13.1739 3 15.8719 5.23999 16.3309 8.23397C18.3969 8.64597 19.9999 10.398 19.9999 12.5709C19.9999 15.0629 17.8939 16.9999 15.3999 16.9999C15.1347 16.9999 14.8803 16.8946 14.6928 16.707C14.5053 16.5195 14.3999 16.2651 14.3999 15.9999C14.3999 15.7347 14.5053 15.4804 14.6928 15.2928C14.8803 15.1053 15.1347 14.9999 15.3999 14.9999C16.8819 14.9999 17.9999 13.8669 17.9999 12.5709C17.9999 11.276 16.8829 10.143 15.3999 10.143C15.1347 10.143 14.8803 10.0376 14.6928 9.85007C14.5053 9.66253 14.3999 9.40818 14.3999 9.14296C14.3999 6.89998 12.4769 4.99999 9.99994 4.99999Z" fill="#0B56DB"/>
<path fill-rule="evenodd" clip-rule="evenodd" d="M9.99999 17C9.73478 17 9.48043 16.8946 9.29289 16.7071C9.10536 16.5195 9 16.2652 9 16V9.99999C9 9.73478 9.10536 9.48043 9.29289 9.29289C9.48043 9.10536 9.73478 9 9.99999 9C10.2652 9 10.5196 9.10536 10.7071 9.29289C10.8946 9.48043 11 9.73478 11 9.99999V16C11 16.2652 10.8946 16.5195 10.7071 16.7071C10.5196 16.8946 10.2652 17 9.99999 17Z" fill="#0B56DB"/>
<path fill-rule="evenodd" clip-rule="evenodd" d="M7.29278 12.707C7.10531 12.5195 7 12.2652 7 12C7 11.7349 7.10531 11.4805 7.29278 11.293L9.29277 9.29303C9.4803 9.10556 9.73461 9.00024 9.99977 9.00024C10.2649 9.00024 10.5192 9.10556 10.7068 9.29303L12.7068 11.293C12.8889 11.4816 12.9897 11.7342 12.9874 11.9964C12.9851 12.2586 12.88 12.5094 12.6946 12.6948C12.5092 12.8802 12.2584 12.9854 11.9962 12.9877C11.734 12.99 11.4814 12.8892 11.2928 12.707L9.99977 11.414L8.70678 12.707C8.51925 12.8945 8.26494 12.9998 7.99978 12.9998C7.73462 12.9998 7.48031 12.8945 7.29278 12.707Z" fill="#0B56DB"/>
</svg>
